# xmcd
# Copyright (C) 1995-1998 Ti Kan
#
# Track frame offsets:
#       150
#       28387
#       55149
#       87216
#       123699
#
# Disc length: 2384 seconds
#
# Revision: 0
# Processed by: cddbd v1.5.2PL0 Copyright (c) Steve Scherf et al.
# Submitted via: CD-Transfer v1.0
#
DISCID=41094e05
DTITLE=King Crimson - Fripp, Wetton, Palmer, Cross
DYEAR=74
DGENRE=
TTITLE0=Red
TTITLE1=Fallen Angel
TTITLE2=One More Red Nightmare
TTITLE3=Providence
TTITLE4=Starless
EXTD=
EXTT0=
EXTT1=
EXTT2=
EXTT3=
EXTT4=
PLAYORDER=
